<?xml version="1.0" encoding="UTF-8" standalone="no"?>
<!DOCTYPE svg PUBLIC "-//W3C//DTD SVG 1.1//EN" "http://www.w3.org/Graphics/SVG/1.1/DTD/svg11.dtd">
<svg width="100%" height="100%" viewBox="100 100 600 600" version="1.1" xmlns="http://www.w3.org/2000/svg" xmlns:xlink="http://www.w3.org/1999/xlink" xml:space="preserve" xmlns:serif="http://www.serif.com/" style="fill-rule:evenodd;clip-rule:evenodd;stroke-linecap:round;stroke-linejoin:round;stroke-miterlimit:1.5;">
    <g transform="matrix(0.982803,0,0,0.982803,188.44,123.19)">
        <g transform="matrix(1.40615,0,0,1.40615,-215.219,-90.6582)">
            <path d="M173.205,175L303.109,250L346.41,225L259.808,175L303.109,175L303.109,150L389.711,200L433.013,175L303.109,100L259.808,125L259.808,150L216.506,150L173.205,175Z" style="stroke:black;stroke-width:8.33px;"/>
        </g>
        <g transform="matrix(1.40615,0,0,1.40615,-235.219,-95.8121)">
            <path d="M173.205,200L173.205,350L216.506,375L216.506,275L238.157,312.5L259.808,300L259.808,400L303.109,425L303.109,275L259.808,250L238.157,262.5L216.506,225L173.205,200Z" style="stroke:black;stroke-width:8.33px;"/>
        </g>
        <g transform="matrix(1.40615,0,0,1.40615,-73.4422,44.8033)">
            <path d="M216.506,175L216.506,325L259.808,300L259.808,200L281.458,212.5L303.109,175L303.109,275L346.41,250L346.41,100L303.109,125L281.458,162.5L259.808,150L216.506,175Z" style="stroke:black;stroke-width:8.33px;"/>
        </g>
    </g>
    <g transform="matrix(1.49261,0,0,1.49261,8.01925,-10.4678)">
        <g transform="matrix(0.5,-0.866025,0.866025,0.5,-108.253,362.5)">
            <path d="M129.904,175L108.253,187.5L108.253,212.5" style="fill:none;stroke:currentColor;stroke-width:8.33px;"/>
        </g>
        <g transform="matrix(0.5,-0.866025,0.866025,0.5,-108.253,362.5)">
            <path d="M281.458,437.5L259.808,450L238.157,437.5" style="fill:none;stroke:currentColor;stroke-width:8.33px;"/>
        </g>
        <g transform="matrix(0.5,-0.866025,0.866025,0.5,-108.253,362.5)">
            <path d="M389.711,175L411.362,187.5L411.362,212.5" style="fill:none;stroke:currentColor;stroke-width:8.33px;"/>
        </g>
    </g>
</svg>
